<svg version="1.1" id="Layer_1" xmlns="http://www.w3.org/2000/svg" xmlns:xlink="http://www.w3.org/1999/xlink" x="0px" y="0px" viewBox="0 0 500 500" style="width: 166px;" xml:space="preserve" data-imageid="dream-1-24" imageName="Dream 1" class="illustrations_image">
<style type="text/css">
	.st0_dream-1-24{fill:#DB3B3B;}
	.st1_dream-1-24{fill:#DCFFF3;}
	.st2_dream-1-24{fill:#A7E8CF;}
	.st3_dream-1-24{fill:#68E1FD;}
	.st4_dream-1-24{fill:#AD2D2D;}
	.st5_dream-1-24{fill:#FFC494;}
	.st6_dream-1-24{fill:#EA8518;}
	.st7_dream-1-24{fill:#FDBA45;}
	.st8_dream-1-24{fill:#475BA2;}
	.st9_dream-1-24{fill:#FF9A22;}
	.st10_dream-1-24{fill:none;}
</style>
<path id="field_dream-1-24" class="st0_dream-1-24" d="M243,402L22,271.4c-7-3.9-13.1-10.4-6.2-14.7l221.8-127.8c3.3-2.1,8.4-3.4,11.8-1.4l232,134.6&#10;&#9;c7,4.1,8.3,15.5,1.3,19.6L272.1,401.8C263.1,407,252.1,407.1,243,402z"/>
<g id="clouds_dream-1-24">
	<path class="st1_dream-1-24" d="M223.6,233.5h252.9L415.8,214c0,0,4.7-60.9-32.6-63.2s-43.1,30.3-43.1,30.3s-15.1-11.7-32.6-5.8&#10;&#9;&#9;S290,204.4,290,204.4L223.6,233.5z"/>
	<path class="st2_dream-1-24" d="M392.2,190.3c2.6,16.8-2.6,30.8-11.3,43.2h95.5L415.8,214c0,0,4.7-60.9-32.6-63.2c-4.9-0.3-9.7,0-14.5,1.1&#10;&#9;&#9;C381.7,159.2,389.7,174,392.2,190.3z"/>
	<path class="st1_dream-1-24" d="M90.2,235.8h90.5l-21.7-7c0,0,1.7-21.8-11.7-22.6S131.9,217,131.9,217s-5.4-4.2-11.7-2.1s-6.2,10.4-6.2,10.4&#10;&#9;&#9;L90.2,235.8z"/>
	<path class="st2_dream-1-24" d="M150.6,220.3c0.9,6-0.9,11-4.1,15.5h34.2l-21.7-7c0,0,1.7-21.8-11.7-22.6c-1.7-0.1-3.5,0-5.2,0.4&#10;&#9;&#9;C146.8,209.2,149.7,214.5,150.6,220.3z"/>
	<path class="st1_dream-1-24" d="M209.6,344.6h90.5l-21.7-7c0,0,1.7-21.8-11.7-22.6s-15.4,10.9-15.4,10.9s-5.4-4.2-11.7-2.1s-6.2,10.4-6.2,10.4&#10;&#9;&#9;L209.6,344.6z"/>
	<path class="st2_dream-1-24" d="M270,329.2c0.9,6-0.9,11-4,15.5h34.2l-21.7-7c0,0,1.7-21.8-11.7-22.6c-1.7-0.1-3.5,0-5.2,0.4&#10;&#9;&#9;C266.2,318,269.1,323.3,270,329.2z"/>
</g>
<polygon id="star_dream-1-24" class="st3_dream-1-24 targetColor" points="312.1,203.8 318.2,216.1 331.7,218.1 321.9,227.6 324.2,241.1 312.1,234.8 300,241.1 &#10;&#9;302.3,227.6 292.5,218.1 306,216.1 " style="fill: rgb(104, 225, 253);"/>
<polygon id="star-2_dream-1-24" class="st3_dream-1-24 targetColor" points="345.1,266.1 355.3,286.8 378.1,290.1 361.6,306.2 365.5,328.9 345.1,318.2 324.7,328.9 &#10;&#9;328.6,306.2 312.1,290.1 334.9,286.8 " style="fill: rgb(104, 225, 253);"/>
<g id="person_dream-1-24">
	<ellipse class="st4_dream-1-24" cx="158.2" cy="313.2" rx="45.2" ry="15.7"/>
	<path class="st5_dream-1-24" d="M174.4,141.9l-1.2-7.6c0,0,1.7-7.7,0.6-8.2s-3,5.1-3,5.1s-6-8.9-7.2-8.8s-4.4,6.3-4.1,8.6s4.6,6.7,5.7,7.9&#10;&#9;&#9;s4.6,8.6,4.6,8.6"/>
	<path class="st5_dream-1-24" d="M132,259.5c0,0,23.8-0.9,26.9-3.6s-2.8-15.5-2.8-15.5s-21.6,9.4-24.3,10"/>
	<path class="st5_dream-1-24" d="M246.9,137.2l1.9-7.5c0,0-1.1-7.8,0.1-8.2s2.5,5.3,2.5,5.3s6.7-8.4,7.9-8.2s3.9,6.6,3.3,8.9s-5.1,6.3-6.3,7.4&#10;&#9;&#9;S251,143,251,143"/>
	<path class="st6_dream-1-24" d="M225,126.8c0,0,6,24.6,8.3,24.5s13.4-16.1,13.4-16.1s7.3,6.6,8.2,8s-13.6,31.5-28.5,26.5s-15.9-20.1-15.9-20.1&#10;&#9;&#9;"/>
	<path class="st7_dream-1-24" d="M187.8,242.4c-12.9,6.6-24.2,13.1-43.5,34.1c0.4,6.5,1.1,8.4,4.2,6.5c11.1-6.8,26-14.7,40.1-22.9&#10;&#9;&#9;C186.1,254.4,185.8,248.1,187.8,242.4z"/>
	<path class="st5_dream-1-24" d="M157.2,277.8c0,0-11.9,6.7-13,9s-2.8,13.9-2.7,15.8s-0.6,4.6-2.1,4.7s-7.4-3.2-9.6-7.4s2.2-8.6,1.2-11.2&#10;&#9;&#9;s-2.3-4.6-0.6-6.9s14.9-5.5,19.6-10.8S157.2,277.8,157.2,277.8z"/>
	<path class="st8_dream-1-24" d="M136.8,293.2c0.6,2.5,2.4,6.2,5,6.6c-0.1,0.9-0.2,1.8-0.2,2.8c0.1,1.9-0.6,4.6-2.1,4.7s-7.4-3.2-9.6-7.4&#10;&#9;&#9;s2.2-8.6,1.2-11.2s-2.3-4.6-0.6-6.9c0.8-1,3.6-2.2,7-3.6C136.1,283.1,135.5,288.2,136.8,293.2z"/>
	<path class="st9_dream-1-24" d="M176.6,137.4c2.7,4.1,5.5,13.7,5.5,13.7s6.4-10.4,10-16.7s22.4-13.8,22.4-13.8s6.9,3.6,10.5,6.1&#10;&#9;&#9;c2.5,1.8,2.8,5.7,3.2,8.5c0.7,4.7,2.8,9.9,1.5,14.7c-1,3.5-2.3,6.9-3.8,10.2c-2.2,5.1-4.5,10.1-7,15c0,0-15.3-2.6-21.6-5.1l2-14.1&#10;&#9;&#9;c0,0-13.1,15.8-19.8,16c-5.7,0.1-10.9-18.6-12.4-25.8C169.4,142.4,172.7,139.3,176.6,137.4z"/>
	<line class="st10_dream-1-24" x1="203.4" y1="164" x2="229.2" y2="158.1"/>
	<path class="st7_dream-1-24" d="M233.5,106.4c0,0-2.6,17.4-10.1,18.1s-9.8-8.7-9.8-8.7s0.5-12,3.2-14S230.5,100.9,233.5,106.4z"/>
	<path class="st8_dream-1-24" d="M228.2,106.6c0,0,2.2,2.9,4.5,3.7s4.5-2.2,5.2-4s0.6-8.3-10.2-11.4s-19.4,4.6-20.8,10.1s-4.1,19.4-4.1,19.4&#10;&#9;&#9;s9.9,2,14.5,2c0,0-0.5-13.4,1.2-17S228.2,106.6,228.2,106.6z"/>
	<path class="st3_dream-1-24 targetColor" d="M183.1,294.3c-34.5-14.2-35.6-45.7-41.1-48.8c21.1-5.9,40.2-49.7,41.6-54.4c3.3-10.8,14.3-21.9,14.3-21.9&#10;&#9;&#9;l22,3.2c0,0,4,16.3,2.7,25.6c-0.5,3.7-16,80.9-19.4,94.3C196.9,294.5,188.7,296.6,183.1,294.3z" style="fill: rgb(104, 225, 253);"/>
	<path class="st5_dream-1-24" d="M139.1,258.2c0,0-13.5,2.1-15.3,3.9s-7.5,12-8.1,13.8s-2.2,4.1-3.6,3.7s-5.8-5.6-6.4-10.3s5-7.3,5-10.1&#10;&#9;&#9;s-0.6-5.1,1.9-6.7s15.9,0,22.2-3.2S139.1,258.2,139.1,258.2z"/>
	<path class="st8_dream-1-24" d="M114.5,265.5c-0.3,2.5,0.1,6.7,2.3,8c-0.4,0.8-0.8,1.7-1.2,2.5c-0.6,1.8-2.2,4.1-3.6,3.7s-5.8-5.6-6.4-10.3&#10;&#9;&#9;s5-7.3,5-10.1s-0.6-5.1,1.9-6.7c1-0.7,4.2-0.8,7.8-0.9C117.5,255.8,115.1,260.3,114.5,265.5z"/>
	<polygon class="st3_dream-1-24 targetColor" points="276.6,96.7 286.4,116.5 308.2,119.7 292.4,135.1 296.1,156.9 276.6,146.6 257,156.9 260.8,135.1 &#10;&#9;&#9;244.9,119.7 266.8,116.5 &#9;" style="fill: rgb(104, 225, 253);"/>
	<path class="st5_dream-1-24" d="M248.8,129.7L248,120c0,0,1-0.3,2,1.4s0,5.1,3.2,5.1c2.3,0,2.5,3.2,3,4.7"/>
</g>
</svg>